<svg width="51" height="58" viewBox="0 0 51 58" fill="none" xmlns="http://www.w3.org/2000/svg">
<mask id="mask0_4_132" style="mask-type:alpha" maskUnits="userSpaceOnUse" x="0" y="0" width="51" height="58">
<path d="M50.0392 7.39216L27.2941 58L0 6.82353L18.7647 0H27.2941H32.9804L38.098 1.70588L50.0392 7.39216Z" fill="#D9D9D9"/>
</mask>
<g mask="url(#mask0_4_132)">
<path fill-rule="evenodd" clip-rule="evenodd" d="M26.7255 2.27451C9.76711 2.27451 -3.98038 16.022 -3.98038 32.9804C-3.98038 49.9388 9.76711 63.6863 26.7255 63.6863C43.6839 63.6863 57.4314 49.9388 57.4314 32.9804C57.4314 16.022 43.6839 2.27451 26.7255 2.27451ZM-6.25489 32.9804C-6.25489 14.7658 8.51093 0 26.7255 0C44.9401 0 59.7059 14.7658 59.7059 32.9804C59.7059 51.195 44.9401 65.9608 26.7255 65.9608C8.51093 65.9608 -6.25489 51.195 -6.25489 32.9804Z" fill="black"/>
<path fill-rule="evenodd" clip-rule="evenodd" d="M26.7255 7.58164C12.6982 7.58164 1.32681 18.953 1.32681 32.9803C1.32681 47.0076 12.6982 58.379 26.7255 58.379C40.7528 58.379 52.1242 47.0076 52.1242 32.9803C52.1242 18.953 40.7528 7.58164 26.7255 7.58164ZM-0.947701 32.9803C-0.947701 17.6968 11.442 5.30713 26.7255 5.30713C42.009 5.30713 54.3987 17.6968 54.3987 32.9803C54.3987 48.2638 42.009 60.6535 26.7255 60.6535C11.442 60.6535 -0.947701 48.2638 -0.947701 32.9803Z" fill="black"/>
<path fill-rule="evenodd" clip-rule="evenodd" d="M9.2876 28.0524C8.36301 28.0524 7.39217 28.9411 7.39217 30.3269C7.39217 31.7127 8.36301 32.6014 9.2876 32.6014C10.2122 32.6014 11.183 31.7127 11.183 30.3269C11.183 28.9411 10.2122 28.0524 9.2876 28.0524ZM5.11766 30.3269C5.11766 27.9442 6.86238 25.7779 9.2876 25.7779C11.7128 25.7779 13.4575 27.9442 13.4575 30.3269C13.4575 32.7096 11.7128 34.8759 9.2876 34.8759C6.86238 34.8759 5.11766 32.7096 5.11766 30.3269Z" fill="black"/>
<path fill-rule="evenodd" clip-rule="evenodd" d="M25.9673 25.7779C24.3861 25.7779 23.3137 26.9059 23.3137 28.0524C23.3137 29.1988 24.3861 30.3269 25.9673 30.3269C27.5485 30.3269 28.6209 29.1988 28.6209 28.0524C28.6209 26.9059 27.5485 25.7779 25.9673 25.7779ZM21.0392 28.0524C21.0392 25.4303 23.3613 23.5034 25.9673 23.5034C28.5734 23.5034 30.8954 25.4303 30.8954 28.0524C30.8954 30.6745 28.5734 32.6014 25.9673 32.6014C23.3613 32.6014 21.0392 30.6745 21.0392 28.0524Z" fill="black"/>
<path fill-rule="evenodd" clip-rule="evenodd" d="M18.0065 14.4051C16.8601 14.4051 15.732 15.4775 15.732 17.0587C15.732 18.6399 16.8601 19.7123 18.0065 19.7123C19.153 19.7123 20.2811 18.6399 20.2811 17.0587C20.2811 15.4775 19.153 14.4051 18.0065 14.4051ZM13.4575 17.0587C13.4575 14.4527 15.3844 12.1306 18.0065 12.1306C20.6286 12.1306 22.5556 14.4527 22.5556 17.0587C22.5556 19.6648 20.6286 21.9868 18.0065 21.9868C15.3844 21.9868 13.4575 19.6648 13.4575 17.0587Z" fill="black"/>
<path fill-rule="evenodd" clip-rule="evenodd" d="M34.6863 13.647C33.4301 13.647 32.4118 14.6653 32.4118 15.9215C32.4118 17.1777 33.4301 18.196 34.6863 18.196C35.9424 18.196 36.9608 17.1777 36.9608 15.9215C36.9608 14.6653 35.9424 13.647 34.6863 13.647ZM30.1372 15.9215C30.1372 13.4092 32.1739 11.3725 34.6863 11.3725C37.1986 11.3725 39.2353 13.4092 39.2353 15.9215C39.2353 18.4339 37.1986 20.4705 34.6863 20.4705C32.1739 20.4705 30.1372 18.4339 30.1372 15.9215Z" fill="black"/>
<path fill-rule="evenodd" clip-rule="evenodd" d="M13.0784 39.425C11.4972 39.425 10.4249 40.553 10.4249 41.6995C10.4249 42.8459 11.4972 43.974 13.0784 43.974C14.6597 43.974 15.732 42.8459 15.732 41.6995C15.732 40.553 14.6597 39.425 13.0784 39.425ZM8.15034 41.6995C8.15034 39.0774 10.4724 37.1505 13.0784 37.1505C15.6845 37.1505 18.0065 39.0774 18.0065 41.6995C18.0065 44.3216 15.6845 46.2485 13.0784 46.2485C10.4724 46.2485 8.15034 44.3216 8.15034 41.6995Z" fill="black"/>
<path fill-rule="evenodd" clip-rule="evenodd" d="M34.3072 35.634C33.6791 35.634 33.1699 36.1432 33.1699 36.7713C33.1699 37.3994 33.6791 37.9085 34.3072 37.9085C34.9353 37.9085 35.4445 37.3994 35.4445 36.7713C35.4445 36.1432 34.9353 35.634 34.3072 35.634ZM30.8954 36.7713C30.8954 34.887 32.4229 33.3595 34.3072 33.3595C36.1915 33.3595 37.719 34.887 37.719 36.7713C37.719 38.6555 36.1915 40.183 34.3072 40.183C32.4229 40.183 30.8954 38.6555 30.8954 36.7713Z" fill="black"/>
<path fill-rule="evenodd" clip-rule="evenodd" d="M30.8954 45.4901C29.749 45.4901 28.6209 46.5625 28.6209 48.1437C28.6209 49.7249 29.749 50.7973 30.8954 50.7973C32.0419 50.7973 33.1699 49.7249 33.1699 48.1437C33.1699 46.5625 32.0419 45.4901 30.8954 45.4901ZM26.3464 48.1437C26.3464 45.5376 28.2733 43.2156 30.8954 43.2156C33.5175 43.2156 35.4445 45.5376 35.4445 48.1437C35.4445 50.7497 33.5175 53.0718 30.8954 53.0718C28.2733 53.0718 26.3464 50.7497 26.3464 48.1437Z" fill="black"/>
<path fill-rule="evenodd" clip-rule="evenodd" d="M42.268 25.0196C40.8821 25.0196 39.9934 25.9904 39.9934 26.915C39.9934 27.8396 40.8821 28.8104 42.268 28.8104C43.6538 28.8104 44.5425 27.8396 44.5425 26.915C44.5425 25.9904 43.6538 25.0196 42.268 25.0196ZM37.7189 26.915C37.7189 24.4898 39.8852 22.7451 42.268 22.7451C44.6507 22.7451 46.817 24.4898 46.817 26.915C46.817 29.3402 44.6507 31.0849 42.268 31.0849C39.8852 31.0849 37.7189 29.3402 37.7189 26.915Z" fill="black"/>
<path fill-rule="evenodd" clip-rule="evenodd" d="M17.4547 30.1589L12.6178 22.9035L14.5103 21.6418L19.3472 28.8972L17.4547 30.1589Z" fill="black"/>
<path fill-rule="evenodd" clip-rule="evenodd" d="M43.2517 50.3128L38.4148 45.4759L40.0231 43.8676L44.86 48.7045L43.2517 50.3128Z" fill="black"/>
<path fill-rule="evenodd" clip-rule="evenodd" d="M43.2517 38.2205L38.4148 33.3835L40.0231 31.7752L44.86 36.6121L43.2517 38.2205Z" fill="black"/>
<path fill-rule="evenodd" clip-rule="evenodd" d="M27.9347 16.4541L25.5163 13.2295L27.3359 11.8648L29.7543 15.0894L27.9347 16.4541Z" fill="black"/>
<path fill-rule="evenodd" clip-rule="evenodd" d="M20.6793 54.3436L15.8424 50.3128L17.2985 48.5655L22.1354 52.5963L20.6793 54.3436Z" fill="black"/>
<path fill-rule="evenodd" clip-rule="evenodd" d="M27.9347 39.0265L20.9736 44.4407L19.5772 42.6453L26.5383 37.2311L27.9347 39.0265Z" fill="black"/>
<path d="M48.3333 9.09802L27.2941 55.1568L3 11" stroke="black" stroke-width="2"/>
</g>
</svg>
