<svg width="58" height="58" viewBox="0 0 58 58" fill="none" xmlns="http://www.w3.org/2000/svg">
<path fill-rule="evenodd" clip-rule="evenodd" d="M29 2C14.0883 2 2 14.0883 2 29C2 43.9117 14.0883 56 29 56C43.9117 56 56 43.9117 56 29C56 14.0883 43.9117 2 29 2ZM0 29C0 12.9837 12.9837 0 29 0C45.0163 0 58 12.9837 58 29C58 45.0163 45.0163 58 29 58C12.9837 58 0 45.0163 0 29Z" fill="black"/>
<path fill-rule="evenodd" clip-rule="evenodd" d="M29 6.66669C16.6656 6.66669 6.66666 16.6657 6.66666 29C6.66666 41.3344 16.6656 51.3334 29 51.3334C41.3343 51.3334 51.3333 41.3344 51.3333 29C51.3333 16.6657 41.3343 6.66669 29 6.66669ZM4.66666 29C4.66666 15.5611 15.5611 4.66669 29 4.66669C42.4389 4.66669 53.3333 15.5611 53.3333 29C53.3333 42.4389 42.4389 53.3334 29 53.3334C15.5611 53.3334 4.66666 42.4389 4.66666 29Z" fill="black"/>
<path fill-rule="evenodd" clip-rule="evenodd" d="M13.6667 24.6666C12.8537 24.6666 12 25.4481 12 26.6666C12 27.8852 12.8537 28.6666 13.6667 28.6666C14.4797 28.6666 15.3333 27.8852 15.3333 26.6666C15.3333 25.4481 14.4797 24.6666 13.6667 24.6666ZM10 26.6666C10 24.5715 11.5341 22.6666 13.6667 22.6666C15.7992 22.6666 17.3333 24.5715 17.3333 26.6666C17.3333 28.7618 15.7992 30.6666 13.6667 30.6666C11.5341 30.6666 10 28.7618 10 26.6666Z" fill="black"/>
<path fill-rule="evenodd" clip-rule="evenodd" d="M28.3333 22.6667C26.943 22.6667 26 23.6586 26 24.6667C26 25.6748 26.943 26.6667 28.3333 26.6667C29.7237 26.6667 30.6667 25.6748 30.6667 24.6667C30.6667 23.6586 29.7237 22.6667 28.3333 22.6667ZM24 24.6667C24 22.361 26.0418 20.6667 28.3333 20.6667C30.6249 20.6667 32.6667 22.361 32.6667 24.6667C32.6667 26.9723 30.6249 28.6667 28.3333 28.6667C26.0418 28.6667 24 26.9723 24 24.6667Z" fill="black"/>
<path fill-rule="evenodd" clip-rule="evenodd" d="M21.3333 12.6667C20.3253 12.6667 19.3333 13.6096 19.3333 15C19.3333 16.3904 20.3253 17.3334 21.3333 17.3334C22.3414 17.3334 23.3333 16.3904 23.3333 15C23.3333 13.6096 22.3414 12.6667 21.3333 12.6667ZM17.3333 15C17.3333 12.7085 19.0277 10.6667 21.3333 10.6667C23.639 10.6667 25.3333 12.7085 25.3333 15C25.3333 17.2915 23.639 19.3334 21.3333 19.3334C19.0277 19.3334 17.3333 17.2915 17.3333 15Z" fill="black"/>
<path fill-rule="evenodd" clip-rule="evenodd" d="M36 12C34.8954 12 34 12.8954 34 14C34 15.1046 34.8954 16 36 16C37.1046 16 38 15.1046 38 14C38 12.8954 37.1046 12 36 12ZM32 14C32 11.7909 33.7909 10 36 10C38.2091 10 40 11.7909 40 14C40 16.2091 38.2091 18 36 18C33.7909 18 32 16.2091 32 14Z" fill="black"/>
<path fill-rule="evenodd" clip-rule="evenodd" d="M17 34.6667C15.6096 34.6667 14.6667 35.6586 14.6667 36.6667C14.6667 37.6748 15.6096 38.6667 17 38.6667C18.3904 38.6667 19.3334 37.6748 19.3334 36.6667C19.3334 35.6586 18.3904 34.6667 17 34.6667ZM12.6667 36.6667C12.6667 34.361 14.7085 32.6667 17 32.6667C19.2915 32.6667 21.3334 34.361 21.3334 36.6667C21.3334 38.9723 19.2915 40.6667 17 40.6667C14.7085 40.6667 12.6667 38.9723 12.6667 36.6667Z" fill="black"/>
<path fill-rule="evenodd" clip-rule="evenodd" d="M35.6667 31.3333C35.1144 31.3333 34.6667 31.781 34.6667 32.3333C34.6667 32.8856 35.1144 33.3333 35.6667 33.3333C36.219 33.3333 36.6667 32.8856 36.6667 32.3333C36.6667 31.781 36.219 31.3333 35.6667 31.3333ZM32.6667 32.3333C32.6667 30.6765 34.0098 29.3333 35.6667 29.3333C37.3235 29.3333 38.6667 30.6765 38.6667 32.3333C38.6667 33.9902 37.3235 35.3333 35.6667 35.3333C34.0098 35.3333 32.6667 33.9902 32.6667 32.3333Z" fill="black"/>
<path fill-rule="evenodd" clip-rule="evenodd" d="M32.6667 40C31.6586 40 30.6667 40.943 30.6667 42.3333C30.6667 43.7237 31.6586 44.6667 32.6667 44.6667C33.6748 44.6667 34.6667 43.7237 34.6667 42.3333C34.6667 40.943 33.6748 40 32.6667 40ZM28.6667 42.3333C28.6667 40.0418 30.361 38 32.6667 38C34.9723 38 36.6667 40.0418 36.6667 42.3333C36.6667 44.6249 34.9723 46.6667 32.6667 46.6667C30.361 46.6667 28.6667 44.6249 28.6667 42.3333Z" fill="black"/>
<path fill-rule="evenodd" clip-rule="evenodd" d="M42.6667 22C41.4481 22 40.6667 22.8537 40.6667 23.6667C40.6667 24.4797 41.4481 25.3333 42.6667 25.3333C43.8852 25.3333 44.6667 24.4797 44.6667 23.6667C44.6667 22.8537 43.8852 22 42.6667 22ZM38.6667 23.6667C38.6667 21.5341 40.5715 20 42.6667 20C44.7618 20 46.6667 21.5341 46.6667 23.6667C46.6667 25.7992 44.7618 27.3333 42.6667 27.3333C40.5715 27.3333 38.6667 25.7992 38.6667 23.6667Z" fill="black"/>
<path fill-rule="evenodd" clip-rule="evenodd" d="M20.8481 26.519L16.595 20.1392L18.2591 19.0298L22.5122 25.4096L20.8481 26.519Z" fill="black"/>
<path fill-rule="evenodd" clip-rule="evenodd" d="M43.5317 44.2405L39.2785 39.9873L40.6927 38.5731L44.9459 42.8263L43.5317 44.2405Z" fill="black"/>
<path fill-rule="evenodd" clip-rule="evenodd" d="M43.5317 33.6076L39.2785 29.3544L40.6927 27.9402L44.9459 32.1934L43.5317 33.6076Z" fill="black"/>
<path fill-rule="evenodd" clip-rule="evenodd" d="M30.0633 14.4684L27.9367 11.6329L29.5367 10.4329L31.6633 13.2684L30.0633 14.4684Z" fill="black"/>
<path fill-rule="evenodd" clip-rule="evenodd" d="M23.6835 47.7848L19.4304 44.2405L20.7108 42.7041L24.9639 46.2484L23.6835 47.7848Z" fill="black"/>
<path fill-rule="evenodd" clip-rule="evenodd" d="M30.0633 34.3164L23.6835 39.2785L22.4557 37.6998L28.8354 32.7377L30.0633 34.3164Z" fill="black"/>
</svg>
