<svg width="48" height="60" viewBox="0 0 48 60" fill="none" xmlns="http://www.w3.org/2000/svg">
<mask id="mask0_66_29" style="mask-type:alpha" maskUnits="userSpaceOnUse" x="9" y="17" width="33" height="31">
<path d="M41.1991 42.2056L9.38066 47.6087L24.2709 17.2467L33.9562 24.2894L36.8877 28.5118L38.842 31.3268L39.7918 34.4219L41.1991 42.2056Z" fill="#D9D9D9"/>
</mask>
<g mask="url(#mask0_66_29)">
<path fill-rule="evenodd" clip-rule="evenodd" d="M35.6136 28.9792C29.7852 20.584 18.5405 18.3049 10.4978 23.8885C2.45517 29.4722 0.66014 40.8043 6.48853 49.1994C12.3169 57.5946 23.5616 59.8737 31.6043 54.2901C39.647 48.7064 41.442 37.3743 35.6136 28.9792ZM9.71611 22.7625C18.3545 16.7653 30.4322 19.2132 36.6923 28.2303C42.9524 37.2473 41.0245 49.4188 32.386 55.4161C23.7476 61.4133 11.67 58.9654 5.40983 49.9483C-0.850299 40.9313 1.07769 28.7598 9.71611 22.7625Z" fill="black"/>
<path fill-rule="evenodd" clip-rule="evenodd" d="M33.0967 30.7264C28.2756 23.7823 18.9745 21.8971 12.3219 26.5157C5.66932 31.1343 4.18454 40.5077 9.00556 47.4518C13.8266 54.396 23.1278 56.2812 29.7803 51.6626C36.4329 47.044 37.9177 37.6706 33.0967 30.7264ZM11.5402 25.3897C18.7885 20.3575 28.9226 22.4115 34.1754 29.9775C39.4281 37.5435 37.8104 47.7564 30.5621 52.7886C23.3137 57.8208 13.1796 55.7668 7.92685 48.2007C2.67411 40.6347 4.29184 30.4219 11.5402 25.3897Z" fill="black"/>
<path fill-rule="evenodd" clip-rule="evenodd" d="M17.395 28.8341C17.0772 28.3764 16.3221 28.1884 15.6649 28.6447C15.0076 29.1009 14.9198 29.8742 15.2376 30.3319C15.5554 30.7896 16.3105 30.9776 16.9677 30.5213C17.625 30.065 17.7128 29.2918 17.395 28.8341ZM14.8831 27.5187C16.0132 26.7341 17.6402 26.8846 18.4737 28.0852C19.3072 29.2858 18.8795 30.8627 17.7495 31.6473C16.6194 32.4318 14.9924 32.2814 14.1589 31.0808C13.3254 29.8802 13.7531 28.3032 14.8831 27.5187Z" fill="black"/>
<path fill-rule="evenodd" clip-rule="evenodd" d="M24.2064 36.3425C23.6629 35.5598 22.7594 35.4003 22.2157 35.7778C21.672 36.1552 21.5055 37.0576 22.049 37.8403C22.5924 38.6231 23.496 38.7825 24.0397 38.4051C24.5834 38.0276 24.7498 37.1253 24.2064 36.3425ZM21.434 34.6518C22.6775 33.7884 24.3894 34.3035 25.2851 35.5936C26.1808 36.8837 26.065 38.6677 24.8214 39.5311C23.5779 40.3944 21.8659 39.8793 20.9703 38.5892C20.0746 37.2991 20.1904 35.5151 21.434 34.6518Z" fill="black"/>
<path fill-rule="evenodd" clip-rule="evenodd" d="M26.8639 28.6571C26.4699 28.0895 25.5736 27.8842 24.8237 28.4048C24.0738 28.9254 23.9529 29.837 24.3469 30.4045C24.741 30.972 25.6372 31.1774 26.3871 30.6568C27.1371 30.1361 27.2579 29.2246 26.8639 28.6571ZM24.042 27.2788C25.2779 26.4207 27.0414 26.6101 27.9426 27.9082C28.8438 29.2062 28.4048 30.9247 27.1689 31.7827C25.9329 32.6408 24.1694 32.4514 23.2682 31.1534C22.367 29.8553 22.806 28.1369 24.042 27.2788Z" fill="black"/>
<path fill-rule="evenodd" clip-rule="evenodd" d="M32.956 36.6646C32.5243 36.0427 31.6914 35.8739 31.0956 36.2875C30.4999 36.7011 30.3669 37.5405 30.7986 38.1624C31.2304 38.7842 32.0633 38.9531 32.6591 38.5394C33.2548 38.1258 33.3878 37.2864 32.956 36.6646ZM30.3139 35.1615C31.5054 34.3343 33.1713 34.6719 34.0348 35.9157C34.8982 37.1594 34.6323 38.8382 33.4408 39.6654C32.2493 40.4926 30.5834 40.155 29.7199 38.9113C28.8565 37.6675 29.1224 35.9887 30.3139 35.1615Z" fill="black"/>
<path fill-rule="evenodd" clip-rule="evenodd" d="M13.3043 34.4552C12.7609 33.6724 11.8573 33.513 11.3136 33.8904C10.7699 34.2679 10.6035 35.1702 11.1469 35.953C11.6904 36.7358 12.5939 36.8952 13.1376 36.5177C13.6813 36.1403 13.8478 35.238 13.3043 34.4552ZM10.5319 32.7645C11.7754 31.9011 13.4874 32.4162 14.383 33.7063C15.2787 34.9964 15.1629 36.7804 13.9193 37.6437C12.6758 38.5071 10.9639 37.992 10.0682 36.7019C9.17254 35.4118 9.28833 33.6278 10.5319 32.7645Z" fill="black"/>
<path fill-rule="evenodd" clip-rule="evenodd" d="M22.3983 43.7163C22.1825 43.4054 21.766 43.321 21.4681 43.5278C21.1703 43.7346 21.1038 44.1543 21.3196 44.4652C21.5355 44.7761 21.952 44.8606 22.2499 44.6538C22.5477 44.447 22.6142 44.0272 22.3983 43.7163ZM20.6864 42.4018C21.58 41.7814 22.8295 42.0346 23.4771 42.9674C24.1247 43.9002 23.9252 45.1593 23.0316 45.7797C22.1379 46.4001 20.8885 46.1469 20.2409 45.2141C19.5933 44.2813 19.7928 43.0222 20.6864 42.4018Z" fill="black"/>
<path fill-rule="evenodd" clip-rule="evenodd" d="M16.5514 45.2725C16.1574 44.7049 15.2611 44.4996 14.5112 45.0202C13.7613 45.5408 13.6404 46.4524 14.0344 47.0199C14.4284 47.5874 15.3247 47.7928 16.0746 47.2722C16.8245 46.7515 16.9454 45.84 16.5514 45.2725ZM13.7295 43.8942C14.9654 43.0362 16.7289 43.2255 17.6301 44.5236C18.5313 45.8216 18.0923 47.5401 16.8563 48.3982C15.6204 49.2562 13.8569 49.0669 12.9557 47.7688C12.0545 46.4707 12.4935 44.7523 13.7295 43.8942Z" fill="black"/>
<path fill-rule="evenodd" clip-rule="evenodd" d="M30.1684 44.1622C29.6921 43.4762 28.9262 43.3559 28.4877 43.6603C28.0492 43.9648 27.8942 44.7244 28.3705 45.4104C28.8468 46.0964 29.6127 46.2167 30.0512 45.9123C30.4897 45.6079 30.6446 44.8483 30.1684 44.1622ZM27.706 42.5344C28.8562 41.7358 30.4282 42.2338 31.2471 43.4133C32.066 44.5929 31.9831 46.2398 30.8329 47.0383C29.6827 47.8368 28.1107 47.3389 27.2918 46.1593C26.4729 44.9798 26.5558 43.3329 27.706 42.5344Z" fill="black"/>
<path fill-rule="evenodd" clip-rule="evenodd" d="M19.203 33.5707L20.9815 28.7873L22.2303 29.3088L20.4517 34.0922L19.203 33.5707Z" fill="black"/>
<path fill-rule="evenodd" clip-rule="evenodd" d="M24.2458 48.9957L24.8774 45.0086L26.1929 45.2753L25.5613 49.2624L24.2458 48.9957Z" fill="black"/>
<path fill-rule="evenodd" clip-rule="evenodd" d="M29.3043 34.2464L30.0025 31.9875L31.2751 32.4389L30.5769 34.6979L29.3043 34.2464Z" fill="black"/>
<path fill-rule="evenodd" clip-rule="evenodd" d="M8.8414 43.1301L9.09064 39.4084L10.4198 39.554L10.1705 43.2756L8.8414 43.1301Z" fill="black"/>
<path fill-rule="evenodd" clip-rule="evenodd" d="M18.5992 41.6786L13.6391 40.0152L14.0106 38.7328L18.9708 40.3962L18.5992 41.6786Z" fill="black"/>
<path d="M39.8039 41.9226L10.7291 46.6725L23.3213 20.1068" stroke="black" stroke-width="2"/>
</g>
<path d="M5.76826 7.36585L4.06684 16.5535C4.02235 16.7938 3.99997 17.0376 3.99997 17.2819V55C3.99997 57.2091 5.79083 59 7.99997 59H42.7927C45.0018 59 46.7927 57.2091 46.7927 55V17.2093C46.7927 17.0131 46.7782 16.8172 46.7495 16.6231L45.378 7.36585M5.76826 7.36585V5C5.76826 2.79086 7.55912 1 9.76826 1H41.378C43.5872 1 45.378 2.79086 45.378 5V7.36585M5.76826 7.36585H25.5731M45.378 7.36585H25.5731M25.5731 7.36585L24.9734 11.2643C24.9168 11.6319 25.2012 11.9634 25.5731 11.9634V11.9634C25.9451 11.9634 26.2295 11.6319 26.1729 11.2643L25.5731 7.36585Z" stroke="black" stroke-width="2"/>
</svg>
