<svg width="24" height="14" viewBox="0 0 24 14" fill="none" xmlns="http://www.w3.org/2000/svg">
<path d="M12.7477 13.6694L23.7148 1.78894C23.8979 1.59071 24 1.32734 24 1.05347C24 0.779602 23.8979 0.51624 23.7148 0.318009L23.7024 0.305218C23.6136 0.208787 23.5068 0.132001 23.3884 0.0795298C23.27 0.0270586 23.1425 0 23.0136 0C22.8847 0 22.7572 0.0270586 22.6388 0.0795298C22.5204 0.132001 22.4135 0.208787 22.3248 0.305218L11.9979 11.4928L1.67521 0.305218C1.58646 0.208787 1.47963 0.132001 1.36121 0.0795298C1.2428 0.0270586 1.11528 0 0.986414 0C0.85755 0 0.730032 0.0270586 0.611618 0.0795298C0.493204 0.132001 0.38637 0.208787 0.297613 0.305218L0.285221 0.318009C0.102137 0.51624 1.90735e-06 0.779602 1.90735e-06 1.05347C1.90735e-06 1.32734 0.102137 1.59071 0.285221 1.78894L11.2523 13.6694C11.3488 13.7738 11.4648 13.857 11.5933 13.9139C11.7218 13.9707 11.8602 14 12 14C12.1398 14 12.2782 13.9707 12.4067 13.9139C12.5352 13.857 12.6512 13.7738 12.7477 13.6694Z" fill="#FF5151"/>
</svg>
